<svg width="1324" height="1088" viewBox="0 0 1324 1088" fill="none" xmlns="http://www.w3.org/2000/svg">
<path fill-rule="evenodd" clip-rule="evenodd" d="M0 0C441.333 0 882.667 0 1324 0C1324 362.667 1324 725.333 1324 1088C882.667 1088 441.333 1088 0 1088C0 725.333 0 362.667 0 0Z" fill="#9AFDD8"/>
<path fill-rule="evenodd" clip-rule="evenodd" d="M1173 20C1198.85 20.336 1224.52 21.336 1250 23C1244.5 67.0033 1230 107.67 1206.5 145C1120.81 267.721 1034.65 390.055 948 512C934.855 546.813 914.855 576.979 888 602.5C858.07 626.934 823.737 641.267 785 645.5C758.809 649.282 732.476 651.282 706 651.5C595.834 652.864 485.834 654.364 376 656C333.616 655.673 291.95 660.84 251 671.5C199.008 686.051 159.508 716.551 132.5 763C117.455 789.962 105.622 818.295 97.0001 848C96.0656 846.932 95.7323 845.599 96.0001 844C114.714 741.598 133.88 639.265 153.5 537C176.278 416.889 199.611 296.889 223.5 177C242.93 105.907 287.43 58.4066 357 34.5C385.658 25.6715 414.991 20.3382 445 18.5C687.667 18.5391 930.334 19.0391 1173 20Z" fill="#3458EF"/>
<path fill-rule="evenodd" clip-rule="evenodd" d="M376 656C384.333 656 392.667 656 401 656C397.244 679.713 393.244 703.379 389 727C379.152 726.673 369.486 727.006 360 728C318.643 727.92 277.976 733.086 238 743.5C193.539 756.974 156.039 781.14 125.5 816C114.933 828.154 105.099 840.821 96 854C95.1618 853.658 94.8284 852.992 95 852C95.8446 850.829 96.5113 849.495 97 848C105.622 818.295 117.455 789.962 132.5 763C159.508 716.551 199.008 686.051 251 671.5C291.95 660.84 333.616 655.673 376 656Z" fill="#FCDC64"/>
<path fill-rule="evenodd" clip-rule="evenodd" d="M360 728C369.486 727.006 379.152 726.673 389 727C389.237 728.291 388.904 729.291 388 730C379.06 728.028 369.727 727.361 360 728Z" fill="#8E90B1"/>
<path fill-rule="evenodd" clip-rule="evenodd" d="M360 728C369.727 727.361 379.06 728.028 388 730C368.669 835.981 349.669 941.981 331 1048C283.671 1049.45 238.004 1041.61 194 1024.5C121.097 990.866 88.4299 934.033 96 854C105.099 840.821 114.933 828.154 125.5 816C156.039 781.14 193.539 756.974 238 743.5C277.976 733.086 318.643 727.92 360 728Z" fill="#3458EF"/>
<path fill-rule="evenodd" clip-rule="evenodd" d="M96 844C95.7322 845.599 96.0655 846.932 97 848C96.5113 849.495 95.8446 850.829 95 852C94.6936 849.115 95.0269 846.448 96 844Z" fill="#6C95D8"/>
</svg>
