<svg width="335" height="336" viewBox="0 0 335 336" fill="none" xmlns="http://www.w3.org/2000/svg">
<mask id="mask0_4397_13440" style="mask-type:luminance" maskUnits="userSpaceOnUse" x="0" y="0" width="335" height="336">
<path d="M0.371582 0.666748H335V335.295H0.371582V0.666748Z" fill="white"/>
</mask>
<g mask="url(#mask0_4397_13440)">
<path d="M83.1902 0.666748H251.984C254.697 0.666748 257.394 0.798281 260.107 1.0778C262.803 1.34087 265.483 1.73548 268.147 2.26163C270.794 2.78777 273.425 3.44545 276.022 4.23467C278.62 5.02389 281.169 5.94465 283.684 6.98049C286.184 8.01634 288.633 9.16728 291.018 10.4498C293.418 11.7322 295.736 13.1298 297.989 14.626C300.258 16.1387 302.428 17.75 304.517 19.4764C306.621 21.1864 308.627 23.0115 310.551 24.9352C312.458 26.8425 314.283 28.8484 316.009 30.953C317.719 33.0411 319.331 35.2279 320.843 37.4805C322.356 39.733 323.737 42.0514 325.02 44.4519C326.302 46.836 327.453 49.2859 328.505 51.8015C329.541 54.3007 330.446 56.8492 331.235 59.4471C332.024 62.0449 332.682 64.6756 333.208 67.3392C333.734 70.0028 334.145 72.6829 334.408 75.3794C334.671 78.0759 334.803 80.7724 334.803 83.4853V252.279C334.803 254.992 334.671 257.705 334.408 260.402C334.145 263.098 333.734 265.778 333.208 268.442C332.682 271.105 332.024 273.736 331.235 276.318C330.446 278.915 329.541 281.464 328.505 283.98C327.453 286.479 326.302 288.929 325.02 291.329C323.737 293.713 322.356 296.048 320.843 298.301C319.331 300.553 317.719 302.724 316.009 304.828C314.283 306.916 312.458 308.922 310.551 310.846C308.627 312.77 306.621 314.578 304.517 316.305C302.428 318.031 300.258 319.642 297.989 321.139C295.736 322.651 293.418 324.049 291.018 325.331C288.633 326.597 286.184 327.765 283.684 328.801C281.169 329.836 278.62 330.757 276.022 331.53C273.425 332.319 270.794 332.977 268.147 333.519C265.483 334.046 262.803 334.44 260.107 334.703C257.394 334.966 254.697 335.098 251.984 335.098H83.1902C80.4772 335.098 77.7807 334.966 75.0678 334.703C72.3713 334.44 69.6912 334.046 67.0276 333.519C64.3805 332.977 61.7497 332.319 59.1519 331.53C56.554 330.757 54.0055 329.836 51.4899 328.801C48.9907 327.765 46.5408 326.597 44.1567 325.331C41.7562 324.049 39.4379 322.651 37.1853 321.139C34.9163 319.642 32.746 318.031 30.6578 316.305C28.5532 314.578 26.5473 312.77 24.6236 310.846C22.7163 308.922 20.8913 306.916 19.1648 304.828C17.4549 302.724 15.8435 300.553 14.3309 298.301C12.8182 296.048 11.4371 293.713 10.1546 291.329C8.87212 288.929 7.72118 286.479 6.66888 283.98C5.63304 281.464 4.72872 278.915 3.93951 276.318C3.15029 273.736 2.49261 271.105 1.96646 268.442C1.44031 265.778 1.02926 263.098 0.766191 260.402C0.503118 257.705 0.371582 254.992 0.371582 252.279V83.4853C0.371582 80.7724 0.503118 78.0759 0.766191 75.3794C1.02926 72.6829 1.44031 70.0028 1.96646 67.3392C2.49261 64.6756 3.15029 62.0449 3.93951 59.4471C4.72872 56.8492 5.63304 54.3007 6.66888 51.8015C7.72118 49.2859 8.87212 46.836 10.1546 44.4519C11.4371 42.0514 12.8182 39.733 14.3309 37.4805C15.8435 35.2279 17.4549 33.0411 19.1648 30.953C20.8913 28.8484 22.7163 26.8425 24.6236 24.9352C26.5473 23.0115 28.5532 21.1864 30.6578 19.4764C32.746 17.75 34.9163 16.1387 37.1853 14.626C39.4379 13.1298 41.7562 11.7322 44.1567 10.4498C46.5408 9.16728 48.9907 8.01634 51.4899 6.98049C54.0055 5.94465 56.554 5.02389 59.1519 4.23467C61.7497 3.44545 64.3805 2.78777 67.0276 2.26163C69.6912 1.73548 72.3713 1.34087 75.0678 1.0778C77.7807 0.798281 80.4772 0.666748 83.1902 0.666748Z" fill="white"/>
<path fill-rule="evenodd" clip-rule="evenodd" d="M98.9815 194.601C89.1041 194.817 79.5272 196.604 70.2506 199.961C62.1095 203.422 55.7487 208.925 51.1681 216.471C47.8148 222.319 45.1705 228.465 43.235 234.91C42.9538 234.429 42.8108 233.857 42.8062 233.195C51.5283 187.299 60.3191 141.416 69.1785 95.5436C73.5705 74.9997 86.0779 62.6353 106.7 58.4508C110.087 57.6953 113.518 57.2665 116.992 57.1643C127.998 56.9499 139.004 56.8784 150.011 56.9499C137.861 85.252 125.711 113.554 113.561 141.856C125.852 141.404 138.145 141.189 150.44 141.213C146.831 158.398 143.329 175.623 139.934 192.886C138.113 193.443 136.183 193.729 134.145 193.743C122.353 193.976 110.632 194.262 98.9815 194.601Z" fill="#4531F0"/>
<path fill-rule="evenodd" clip-rule="evenodd" d="M210.045 57.3787C237.633 57.3787 265.22 57.3787 292.808 57.3787C291.502 67.2275 288.286 76.3757 283.159 84.8231C264.311 111.298 245.514 137.813 226.769 164.369C221.432 178.858 211.283 187.863 196.323 191.385C192.079 192.237 187.791 192.809 183.459 193.1C172.312 193.557 161.163 193.699 150.011 193.529C171.007 170.102 192.162 146.802 213.476 123.631C197.035 122.228 180.597 120.798 164.162 119.343C179.617 98.7902 194.912 78.1354 210.045 57.3787Z" fill="#4531F1"/>
<path fill-rule="evenodd" clip-rule="evenodd" d="M98.9814 194.601C102.282 194.459 105.569 194.602 108.844 195.03C107.71 199.841 106.853 204.7 106.271 209.61C103.902 209.472 101.614 209.615 99.4102 210.038C86.2647 209.48 73.829 212.124 62.1029 217.972C54.6175 222.812 48.3282 228.888 43.2349 236.196C42.7524 235.833 42.7524 235.404 43.2349 234.91C45.1704 228.465 47.8147 222.319 51.168 216.471C55.7486 208.925 62.1094 203.422 70.2505 199.961C79.5271 196.604 89.1039 194.817 98.9814 194.601Z" fill="#F7DD53"/>
<path fill-rule="evenodd" clip-rule="evenodd" d="M99.4102 210.039C101.614 209.615 103.902 209.472 106.271 209.61C106.345 210.035 106.202 210.321 105.842 210.467C103.782 210.044 101.638 209.901 99.4102 210.039Z" fill="#816BC7"/>
<path fill-rule="evenodd" clip-rule="evenodd" d="M99.4104 210.038C101.638 209.901 103.782 210.044 105.843 210.467C101.516 233.137 97.5142 255.864 93.8358 278.65C90.9768 278.65 88.1183 278.65 85.2594 278.65C83.2053 278.124 81.0612 277.838 78.8271 277.792C66.9445 276.576 57.0101 271.573 49.0242 262.783C43.3292 254.673 41.3995 245.81 43.2351 236.196C48.3284 228.888 54.6178 222.813 62.1031 217.972C73.8292 212.124 86.265 209.48 99.4104 210.038Z" fill="#4531F0"/>
<path fill-rule="evenodd" clip-rule="evenodd" d="M78.8267 277.792C81.0608 277.838 83.2049 278.124 85.2589 278.649C83.0076 278.734 80.8636 278.448 78.8267 277.792Z" fill="#B0A5F9"/>
</g>
</svg>
