<svg width="387" height="343" viewBox="0 0 387 343" fill="none" xmlns="http://www.w3.org/2000/svg">
<path fill-rule="evenodd" clip-rule="evenodd" d="M87.0904 213.196C71.8429 213.531 57.0594 216.289 42.7393 221.471C30.1722 226.813 20.3532 235.308 13.2822 246.956C8.10582 255.984 4.02379 265.472 1.03598 275.42C0.601869 274.678 0.381173 273.795 0.374023 272.773C13.8382 201.925 27.4084 131.096 41.0844 60.2843C47.8642 28.5711 67.1715 9.4846 99.0057 3.02495C104.234 1.85878 109.53 1.19682 114.893 1.03908C131.882 0.708102 148.872 0.59782 165.863 0.708102C147.108 44.3973 128.352 88.0865 109.597 131.776C128.569 131.077 147.546 130.746 166.525 130.783C160.955 157.311 155.549 183.9 150.307 210.549C147.497 211.408 144.518 211.85 141.371 211.873C123.168 212.231 105.075 212.673 87.0904 213.196Z" fill="#4531F0"/>
<path fill-rule="evenodd" clip-rule="evenodd" d="M258.537 1.37012C301.123 1.37012 343.709 1.37012 386.295 1.37012C384.28 16.5735 379.315 30.6953 371.401 43.7354C342.305 84.6033 313.29 125.535 284.354 166.528C276.114 188.894 260.448 202.795 237.355 208.232C230.803 209.547 224.184 210.43 217.496 210.88C200.289 211.585 183.078 211.805 165.863 211.542C198.275 175.378 230.932 139.411 263.833 103.643C238.454 101.476 213.079 99.269 187.708 97.023C211.566 65.296 235.176 33.4117 258.537 1.37012Z" fill="#4531F1"/>
<path fill-rule="evenodd" clip-rule="evenodd" d="M87.0905 213.197C92.185 212.977 97.2595 213.199 102.316 213.859C100.565 221.285 99.2414 228.787 98.3438 236.365C94.6858 236.153 91.1549 236.373 87.7525 237.027C67.4602 236.164 48.2634 240.247 30.1622 249.273C18.6072 256.746 8.89846 266.124 1.03607 277.406C0.291364 276.845 0.291364 276.183 1.03607 275.421C4.02388 265.472 8.1059 255.984 13.2823 246.956C20.3532 235.308 30.1723 226.813 42.7394 221.471C57.0595 216.289 71.843 213.531 87.0905 213.197Z" fill="#F7DD53"/>
<path fill-rule="evenodd" clip-rule="evenodd" d="M87.7524 237.027C91.1549 236.373 94.6858 236.152 98.3438 236.365C98.4576 237.021 98.2365 237.462 97.6818 237.689C94.5011 237.035 91.1913 236.814 87.7524 237.027Z" fill="#816BC7"/>
<path fill-rule="evenodd" clip-rule="evenodd" d="M87.7524 237.027C91.1913 236.814 94.5011 237.036 97.6818 237.689C91.0033 272.683 84.8252 307.767 79.147 342.94C74.7337 342.94 70.3211 342.94 65.9078 342.94C62.737 342.129 59.4273 341.688 55.9785 341.616C37.6356 339.739 22.3001 332.016 9.97243 318.448C1.1813 305.927 -1.79751 292.247 1.036 277.406C8.8984 266.124 18.6071 256.746 30.1621 249.273C48.2633 240.247 67.4601 236.164 87.7524 237.027Z" fill="#4531F0"/>
<path fill-rule="evenodd" clip-rule="evenodd" d="M55.9785 341.616C59.4273 341.688 62.7371 342.129 65.9079 342.94C62.4326 343.071 59.1228 342.63 55.9785 341.616Z" fill="#B0A5F9"/>
</svg>
